<svg width="15" height="9" viewBox="0 0 15 9" fill="none" xmlns="http://www.w3.org/2000/svg">
<path d="M13.3755 8.53123C13.2718 8.52253 13.1693 8.50192 13.0739 8.47059C12.9786 8.43925 12.8922 8.3978 12.8196 8.34861C12.7471 8.29941 12.69 8.24344 12.6514 8.18388C12.6128 8.12433 12.5936 8.06236 12.5949 8.00152L12.6882 3.22655L1.63342 8.71817C1.48373 8.79253 1.28204 8.82441 1.07273 8.80679C0.863413 8.78916 0.663619 8.72349 0.517297 8.6242C0.370975 8.52492 0.290111 8.40016 0.292495 8.27738C0.294879 8.15459 0.380314 8.04383 0.530008 7.96947L11.5848 2.47785L3.44479 1.79294C3.23536 1.77531 3.03545 1.70959 2.88905 1.61025C2.74264 1.51092 2.66174 1.38609 2.66412 1.26323C2.66651 1.14038 2.75199 1.02956 2.90177 0.955159C3.05154 0.880756 3.25334 0.848862 3.46277 0.866494L13.5079 1.7122C13.6116 1.7209 13.7141 1.74151 13.8095 1.77284C13.9049 1.80418 13.9913 1.84563 14.0638 1.89483C14.1363 1.94402 14.1934 2 14.232 2.05955C14.2706 2.11911 14.2898 2.18107 14.2886 2.24191L14.1742 8.13449C14.173 8.19533 14.1515 8.25387 14.1107 8.30675C14.07 8.35962 14.0108 8.4058 13.9367 8.44265C13.8625 8.4795 13.7747 8.50628 13.6785 8.52148C13.5822 8.53668 13.4792 8.54 13.3755 8.53123Z" fill="black"/>
</svg>
