<svg width="1280" height="268" viewBox="0 0 1280 268" fill="none" xmlns="http://www.w3.org/2000/svg">
<path d="M-495 73.5381C-487.933 73.5381 -482.533 74.3381 -478.8 75.9381C-475.067 77.5381 -471.8 79.2714 -469 81.1381C-467.4 82.0714 -466.133 82.8048 -465.2 83.3381C-464.133 83.7381 -463.133 83.9381 -462.2 83.9381C-460.867 83.9381 -459.933 83.2047 -459.4 81.7381C-458.733 80.2714 -458.2 78.0714 -457.8 75.1381H-453.2C-453.333 77.5381 -453.533 80.4047 -453.8 83.7381C-453.933 86.9381 -454.067 91.2047 -454.2 96.5381C-454.2 101.871 -454.2 108.871 -454.2 117.538H-458.8C-459.2 111.005 -460.667 104.671 -463.2 98.5381C-465.6 92.4047 -469.2 87.4047 -474 83.5381C-478.667 79.6714 -484.667 77.7381 -492 77.7381C-498.8 77.7381 -504.467 79.8047 -509 83.9381C-513.4 87.9381 -515.6 93.2714 -515.6 99.9381C-515.6 105.805 -514.133 110.738 -511.2 114.738C-508.267 118.605 -504.267 122.271 -499.2 125.738C-494 129.071 -488.133 132.805 -481.6 136.938C-474.933 141.205 -468.933 145.471 -463.6 149.738C-458.267 153.871 -454.067 158.471 -451 163.538C-447.933 168.605 -446.4 174.738 -446.4 181.938C-446.4 190.605 -448.467 197.805 -452.6 203.538C-456.6 209.138 -462 213.338 -468.8 216.138C-475.6 218.938 -483.067 220.338 -491.2 220.338C-498.667 220.338 -504.6 219.538 -509 217.938C-513.4 216.338 -517.133 214.671 -520.2 212.938C-523.133 211.071 -525.4 210.138 -527 210.138C-528.333 210.138 -529.333 210.871 -530 212.338C-530.533 213.805 -531 216.005 -531.4 218.938H-536C-535.733 216.005 -535.6 212.605 -535.6 208.738C-535.467 204.738 -535.4 199.538 -535.4 193.138C-535.267 186.738 -535.2 178.671 -535.2 168.938H-530.6C-530.067 177.205 -528.6 184.938 -526.2 192.138C-523.667 199.338 -519.867 205.138 -514.8 209.538C-509.6 213.805 -502.733 215.938 -494.2 215.938C-489.667 215.938 -485.467 215.071 -481.6 213.338C-477.733 211.605 -474.6 208.871 -472.2 205.138C-469.8 201.405 -468.6 196.605 -468.6 190.738C-468.6 185.271 -469.933 180.471 -472.6 176.338C-475.133 172.205 -478.733 168.405 -483.4 164.938C-487.933 161.338 -493.267 157.671 -499.4 153.938C-505.667 149.938 -511.533 145.938 -517 141.938C-522.467 137.938 -526.867 133.271 -530.2 127.938C-533.4 122.605 -535 116.271 -535 108.938C-535 100.805 -533.133 94.1381 -529.4 88.9381C-525.533 83.7381 -520.6 79.8714 -514.6 77.3381C-508.467 74.8047 -501.933 73.5381 -495 73.5381ZM-376.862 111.538C-372.329 111.538 -367.996 112.138 -363.862 113.338C-359.729 114.405 -356.129 115.938 -353.062 117.938C-349.862 119.938 -347.462 122.338 -345.862 125.138C-344.129 127.938 -343.262 131.005 -343.262 134.338C-343.262 138.338 -344.396 141.471 -346.662 143.738C-348.929 146.005 -351.862 147.138 -355.462 147.138C-359.062 147.138 -362.062 146.138 -364.462 144.138C-366.862 142.138 -368.062 139.271 -368.062 135.538C-368.062 132.071 -367.062 129.271 -365.062 127.138C-363.062 124.871 -360.729 123.405 -358.062 122.738C-359.262 120.738 -361.396 119.071 -364.462 117.738C-367.396 116.271 -370.596 115.538 -374.062 115.538C-377.662 115.538 -381.129 116.471 -384.462 118.338C-387.662 120.205 -390.529 123.071 -393.062 126.938C-395.596 130.805 -397.662 135.805 -399.262 141.938C-400.729 148.071 -401.462 155.471 -401.462 164.138C-401.462 175.338 -400.196 184.271 -397.662 190.938C-394.996 197.471 -391.529 202.138 -387.262 204.938C-382.996 207.738 -378.396 209.138 -373.462 209.138C-370.262 209.138 -366.996 208.538 -363.662 207.338C-360.196 206.138 -356.929 204.138 -353.862 201.338C-350.662 198.538 -347.862 194.738 -345.462 189.938L-341.662 191.338C-343.129 195.738 -345.462 200.205 -348.662 204.738C-351.729 209.271 -355.796 213.005 -360.862 215.938C-365.929 218.871 -372.129 220.338 -379.462 220.338C-387.862 220.338 -395.462 218.271 -402.262 214.138C-409.062 210.005 -414.462 204.005 -418.462 196.138C-422.462 188.138 -424.462 178.405 -424.462 166.938C-424.462 155.738 -422.462 146.005 -418.462 137.738C-414.329 129.338 -408.662 122.871 -401.462 118.338C-394.262 113.805 -386.062 111.538 -376.862 111.538ZM-301.811 63.9381C-297.678 63.9381 -294.211 65.2714 -291.411 67.9381C-288.611 70.4714 -287.211 73.6714 -287.211 77.5381C-287.211 81.4047 -288.611 84.6714 -291.411 87.3381C-294.211 89.8714 -297.678 91.1381 -301.811 91.1381C-305.944 91.1381 -309.411 89.8714 -312.211 87.3381C-315.011 84.6714 -316.411 81.4047 -316.411 77.5381C-316.411 73.6714 -315.011 70.4714 -312.211 67.9381C-309.411 65.2714 -305.944 63.9381 -301.811 63.9381ZM-289.811 112.138V198.938C-289.811 204.538 -288.744 208.338 -286.611 210.338C-284.344 212.338 -280.611 213.338 -275.411 213.338V217.538C-277.678 217.405 -281.211 217.271 -286.011 217.138C-290.678 216.871 -295.478 216.738 -300.411 216.738C-305.078 216.738 -309.878 216.871 -314.811 217.138C-319.744 217.271 -323.411 217.405 -325.811 217.538V213.338C-320.611 213.338 -316.944 212.338 -314.811 210.338C-312.544 208.338 -311.411 204.538 -311.411 198.938V136.138C-311.411 130.138 -312.411 125.738 -314.411 122.938C-316.411 120.005 -320.211 118.538 -325.811 118.538V114.338C-321.544 114.738 -317.411 114.938 -313.411 114.938C-308.878 114.938 -304.678 114.738 -300.811 114.338C-296.811 113.805 -293.144 113.071 -289.811 112.138ZM-146.622 75.9381C-147.155 81.5381 -147.555 87.0047 -147.822 92.3381C-147.955 97.5381 -148.022 101.538 -148.022 104.338C-148.022 107.405 -147.955 110.338 -147.822 113.138C-147.689 115.938 -147.555 118.338 -147.422 120.338H-152.022C-153.355 110.338 -155.155 102.471 -157.422 96.7381C-159.555 91.0047 -162.689 86.8714 -166.822 84.3381C-170.955 81.8047 -176.889 80.5381 -184.622 80.5381H-193.222V194.538C-193.222 199.871 -192.755 203.871 -191.822 206.538C-190.755 209.205 -188.755 211.005 -185.822 211.938C-182.755 212.738 -178.355 213.271 -172.622 213.538V217.538C-176.355 217.271 -181.155 217.138 -187.022 217.138C-192.889 217.005 -198.889 216.938 -205.022 216.938C-211.422 216.938 -217.489 217.005 -223.222 217.138C-228.822 217.138 -233.355 217.271 -236.822 217.538V213.538C-231.089 213.271 -226.755 212.738 -223.822 211.938C-220.889 211.005 -218.889 209.205 -217.822 206.538C-216.755 203.871 -216.222 199.871 -216.222 194.538V80.5381H-225.022C-232.489 80.5381 -238.355 81.8047 -242.622 84.3381C-246.889 86.8714 -250.089 91.0047 -252.222 96.7381C-254.355 102.471 -256.089 110.338 -257.422 120.338H-262.022C-261.755 118.338 -261.622 115.938 -261.622 113.138C-261.489 110.338 -261.422 107.405 -261.422 104.338C-261.422 101.538 -261.555 97.5381 -261.822 92.3381C-261.955 87.0047 -262.289 81.5381 -262.822 75.9381C-257.089 76.0714 -250.822 76.2047 -244.022 76.3381C-237.222 76.4714 -230.355 76.5381 -223.422 76.5381C-216.489 76.5381 -210.222 76.5381 -204.622 76.5381C-199.022 76.5381 -192.822 76.5381 -186.022 76.5381C-179.222 76.5381 -172.355 76.4714 -165.422 76.3381C-158.489 76.2047 -152.222 76.0714 -146.622 75.9381ZM-90.4766 111.538C-78.7432 111.538 -69.5432 115.071 -62.8766 122.138C-56.2099 129.205 -52.8766 140.405 -52.8766 155.738H-121.877L-122.277 151.938H-74.0766C-73.9432 145.405 -74.4766 139.405 -75.6766 133.938C-76.8766 128.338 -78.7432 123.871 -81.2766 120.538C-83.8099 117.205 -87.1432 115.538 -91.2766 115.538C-97.0099 115.538 -102.01 118.605 -106.277 124.738C-110.41 130.738 -112.943 140.405 -113.877 153.738L-113.277 154.738C-113.41 156.605 -113.543 158.671 -113.677 160.938C-113.81 163.071 -113.877 165.205 -113.877 167.338C-113.877 176.538 -112.477 184.271 -109.677 190.538C-106.877 196.805 -103.21 201.538 -98.6766 204.738C-94.1432 207.805 -89.5432 209.338 -84.8766 209.338C-81.2766 209.338 -77.8099 208.805 -74.4766 207.738C-71.0099 206.538 -67.7432 204.605 -64.6766 201.938C-61.6099 199.138 -58.8766 195.338 -56.4766 190.538L-52.4766 192.138C-54.0766 196.671 -56.5432 201.138 -59.8766 205.538C-63.2099 209.938 -67.4766 213.538 -72.6766 216.338C-77.8766 219.005 -83.9432 220.338 -90.8766 220.338C-100.21 220.338 -108.343 218.271 -115.277 214.138C-122.21 209.871 -127.543 203.805 -131.277 195.938C-135.01 188.071 -136.877 178.738 -136.877 167.938C-136.877 156.071 -134.943 145.938 -131.077 137.538C-127.21 129.138 -121.81 122.738 -114.877 118.338C-107.81 113.805 -99.6766 111.538 -90.4766 111.538ZM15.7 111.538C20.2333 111.538 24.5667 112.138 28.7 113.338C32.8333 114.405 36.4333 115.938 39.5 117.938C42.7 119.938 45.1 122.338 46.7 125.138C48.4333 127.938 49.3 131.005 49.3 134.338C49.3 138.338 48.1667 141.471 45.9 143.738C43.6333 146.005 40.7 147.138 37.1 147.138C33.5 147.138 30.5 146.138 28.1 144.138C25.7 142.138 24.5 139.271 24.5 135.538C24.5 132.071 25.5 129.271 27.5 127.138C29.5 124.871 31.8333 123.405 34.5 122.738C33.3 120.738 31.1667 119.071 28.1 117.738C25.1667 116.271 21.9667 115.538 18.5 115.538C14.9 115.538 11.4333 116.471 8.1 118.338C4.9 120.205 2.03334 123.071 -0.499999 126.938C-3.03333 130.805 -5.1 135.805 -6.7 141.938C-8.16666 148.071 -8.9 155.471 -8.9 164.138C-8.9 175.338 -7.63333 184.271 -5.1 190.938C-2.43333 197.471 1.03334 202.138 5.3 204.938C9.56667 207.738 14.1667 209.138 19.1 209.138C22.3 209.138 25.5667 208.538 28.9 207.338C32.3667 206.138 35.6333 204.138 38.7 201.338C41.9 198.538 44.7 194.738 47.1 189.938L50.9 191.338C49.4333 195.738 47.1 200.205 43.9 204.738C40.8333 209.271 36.7667 213.005 31.7 215.938C26.6333 218.871 20.4333 220.338 13.1 220.338C4.7 220.338 -2.9 218.271 -9.7 214.138C-16.5 210.005 -21.9 204.005 -25.9 196.138C-29.9 188.138 -31.9 178.405 -31.9 166.938C-31.9 155.738 -29.9 146.005 -25.9 137.738C-21.7667 129.338 -16.1 122.871 -8.9 118.338C-1.7 113.805 6.5 111.538 15.7 111.538ZM101.352 60.9381V133.738C104.685 125.471 109.352 119.738 115.352 116.538C121.485 113.205 127.952 111.538 134.752 111.538C140.085 111.538 144.418 112.271 147.752 113.738C151.218 115.071 154.085 116.938 156.352 119.338C158.752 121.871 160.485 125.138 161.552 129.138C162.618 133.138 163.152 138.538 163.152 145.338V198.938C163.152 204.538 164.218 208.338 166.352 210.338C168.618 212.338 172.352 213.338 177.552 213.338V217.538C175.152 217.405 171.552 217.271 166.752 217.138C161.952 216.871 157.285 216.738 152.752 216.738C148.085 216.738 143.485 216.871 138.952 217.138C134.552 217.271 131.285 217.405 129.152 217.538V213.338C133.685 213.338 136.885 212.338 138.752 210.338C140.618 208.338 141.552 204.538 141.552 198.938V139.738C141.552 135.871 141.218 132.405 140.552 129.338C139.885 126.138 138.418 123.605 136.152 121.738C134.018 119.738 130.818 118.738 126.552 118.738C121.752 118.738 117.418 120.138 113.552 122.938C109.818 125.605 106.818 129.338 104.552 134.138C102.418 138.938 101.352 144.405 101.352 150.538V198.938C101.352 204.538 102.285 208.338 104.152 210.338C106.018 212.338 109.218 213.338 113.752 213.338V217.538C111.485 217.405 108.152 217.271 103.752 217.138C99.4849 216.871 95.0849 216.738 90.5516 216.738C85.8849 216.738 81.0849 216.871 76.1516 217.138C71.3516 217.271 67.7516 217.405 65.3516 217.538V213.338C70.5516 213.338 74.2182 212.338 76.3516 210.338C78.6182 208.338 79.7516 204.538 79.7516 198.938V84.9381C79.7516 78.9381 78.6849 74.5381 76.5516 71.7381C74.5516 68.8047 70.8182 67.3381 65.3516 67.3381V63.1381C69.6182 63.5381 73.7516 63.7381 77.7516 63.7381C82.1516 63.7381 86.3516 63.5381 90.3516 63.1381C94.3516 62.6047 98.0182 61.8714 101.352 60.9381ZM299.525 75.9381V79.9381C295.125 80.0714 291.792 80.6047 289.525 81.5381C287.258 82.3381 285.725 83.9381 284.925 86.3381C284.125 88.6047 283.725 92.2047 283.725 97.1381V196.338C283.725 201.138 284.125 204.738 284.925 207.138C285.725 209.538 287.258 211.138 289.525 211.938C291.792 212.738 295.125 213.271 299.525 213.538V217.538C296.325 217.271 292.258 217.138 287.325 217.138C282.525 217.005 277.592 216.938 272.525 216.938C266.925 216.938 261.658 217.005 256.725 217.138C251.925 217.138 247.992 217.271 244.925 217.538V213.538C249.458 213.271 252.858 212.738 255.125 211.938C257.392 211.138 258.858 209.538 259.525 207.138C260.325 204.738 260.725 201.138 260.725 196.338V97.1381C260.725 92.2047 260.325 88.6047 259.525 86.3381C258.858 83.9381 257.325 82.3381 254.925 81.5381C252.658 80.6047 249.325 80.0714 244.925 79.9381V75.9381C247.992 76.0714 251.925 76.2047 256.725 76.3381C261.658 76.4714 266.925 76.5381 272.525 76.5381C277.592 76.5381 282.525 76.4714 287.325 76.3381C292.258 76.2047 296.325 76.0714 299.525 75.9381ZM386.242 111.538C391.576 111.538 395.909 112.271 399.242 113.738C402.709 115.071 405.576 116.938 407.842 119.338C410.242 121.871 411.909 125.138 412.842 129.138C413.909 133.138 414.442 138.538 414.442 145.338V198.938C414.442 204.538 415.509 208.338 417.642 210.338C419.909 212.338 423.642 213.338 428.842 213.338V217.538C426.576 217.405 423.042 217.271 418.242 217.138C413.442 216.871 408.709 216.738 404.042 216.738C399.509 216.738 394.976 216.871 390.442 217.138C386.042 217.271 382.709 217.405 380.442 217.538V213.338C384.976 213.338 388.176 212.338 390.042 210.338C391.909 208.338 392.842 204.538 392.842 198.938V139.738C392.842 135.871 392.509 132.405 391.842 129.338C391.176 126.138 389.776 123.605 387.642 121.738C385.509 119.738 382.309 118.738 378.042 118.738C373.109 118.738 368.709 120.138 364.842 122.938C361.109 125.738 358.109 129.605 355.842 134.538C353.709 139.338 352.642 144.738 352.642 150.738V198.938C352.642 204.538 353.576 208.338 355.442 210.338C357.442 212.338 360.642 213.338 365.042 213.338V217.538C362.909 217.405 359.642 217.271 355.242 217.138C350.976 216.871 346.509 216.738 341.842 216.738C337.309 216.738 332.576 216.871 327.642 217.138C322.709 217.271 319.042 217.405 316.642 217.538V213.338C321.842 213.338 325.509 212.338 327.642 210.338C329.909 208.338 331.042 204.538 331.042 198.938V136.138C331.042 130.138 330.042 125.738 328.042 122.938C326.042 120.005 322.242 118.538 316.642 118.538V114.338C320.909 114.738 325.042 114.938 329.042 114.938C333.576 114.938 337.776 114.738 341.642 114.338C345.642 113.805 349.309 113.071 352.642 112.138V133.938C356.109 125.671 360.842 119.871 366.842 116.538C372.976 113.205 379.442 111.538 386.242 111.538ZM475.75 60.7381V198.938C475.75 204.538 476.683 208.338 478.55 210.338C480.55 212.338 483.883 213.338 488.55 213.338V217.538C486.283 217.405 482.883 217.271 478.35 217.138C473.95 216.871 469.483 216.738 464.95 216.738C460.283 216.738 455.483 216.871 450.55 217.138C445.75 217.271 442.15 217.405 439.75 217.538V213.338C444.95 213.338 448.617 212.338 450.75 210.338C453.017 208.338 454.15 204.538 454.15 198.938V84.7381C454.15 78.7381 453.083 74.3381 450.95 71.5381C448.95 68.6047 445.217 67.1381 439.75 67.1381V62.9381C444.017 63.3381 448.15 63.5381 452.15 63.5381C456.55 63.5381 460.75 63.3381 464.75 62.9381C468.75 62.4047 472.417 61.6714 475.75 60.7381ZM539.75 114.338V118.338C536.15 118.871 532.683 120.071 529.35 121.938C526.017 123.805 522.75 126.405 519.55 129.738L495.55 154.938L498.15 149.938L534.35 202.938C536.35 205.738 538.283 208.071 540.15 209.938C542.017 211.671 544.35 212.805 547.15 213.338V217.538C545.417 217.405 542.817 217.271 539.35 217.138C536.017 216.871 532.683 216.738 529.35 216.738C524.95 216.738 520.483 216.871 515.95 217.138C511.417 217.271 508.083 217.405 505.95 217.538V213.338C508.617 213.338 510.417 212.671 511.35 211.338C512.417 210.005 512.283 208.405 510.95 206.538L488.95 172.138C486.683 168.938 484.617 166.871 482.75 165.938C480.883 165.005 478.217 164.471 474.75 164.338V160.338C478.617 159.938 481.75 159.205 484.15 158.138C486.683 157.071 489.017 155.338 491.15 152.938L506.15 137.738C510.417 133.471 512.55 129.938 512.55 127.138C512.55 124.205 511.15 122.071 508.35 120.738C505.683 119.271 502.083 118.471 497.55 118.338V114.338C501.15 114.471 505.083 114.671 509.35 114.938C513.75 115.071 517.417 115.138 520.35 115.138C522.75 115.138 525.15 115.138 527.55 115.138C530.083 115.005 532.417 114.871 534.55 114.738C536.683 114.605 538.417 114.471 539.75 114.338Z" fill="black"/>
<path d="M675 73.5381C682.067 73.5381 687.467 74.3381 691.2 75.9381C694.933 77.5381 698.2 79.2714 701 81.1381C702.6 82.0714 703.867 82.8048 704.8 83.3381C705.867 83.7381 706.867 83.9381 707.8 83.9381C709.133 83.9381 710.067 83.2047 710.6 81.7381C711.267 80.2714 711.8 78.0714 712.2 75.1381H716.8C716.667 77.5381 716.467 80.4047 716.2 83.7381C716.067 86.9381 715.933 91.2047 715.8 96.5381C715.8 101.871 715.8 108.871 715.8 117.538H711.2C710.8 111.005 709.333 104.671 706.8 98.5381C704.4 92.4047 700.8 87.4047 696 83.5381C691.333 79.6714 685.333 77.7381 678 77.7381C671.2 77.7381 665.533 79.8047 661 83.9381C656.6 87.9381 654.4 93.2714 654.4 99.9381C654.4 105.805 655.867 110.738 658.8 114.738C661.733 118.605 665.733 122.271 670.8 125.738C676 129.071 681.867 132.805 688.4 136.938C695.067 141.205 701.067 145.471 706.4 149.738C711.733 153.871 715.933 158.471 719 163.538C722.067 168.605 723.6 174.738 723.6 181.938C723.6 190.605 721.533 197.805 717.4 203.538C713.4 209.138 708 213.338 701.2 216.138C694.4 218.938 686.933 220.338 678.8 220.338C671.333 220.338 665.4 219.538 661 217.938C656.6 216.338 652.867 214.671 649.8 212.938C646.867 211.071 644.6 210.138 643 210.138C641.667 210.138 640.667 210.871 640 212.338C639.467 213.805 639 216.005 638.6 218.938H634C634.267 216.005 634.4 212.605 634.4 208.738C634.533 204.738 634.6 199.538 634.6 193.138C634.733 186.738 634.8 178.671 634.8 168.938H639.4C639.933 177.205 641.4 184.938 643.8 192.138C646.333 199.338 650.133 205.138 655.2 209.538C660.4 213.805 667.267 215.938 675.8 215.938C680.333 215.938 684.533 215.071 688.4 213.338C692.267 211.605 695.4 208.871 697.8 205.138C700.2 201.405 701.4 196.605 701.4 190.738C701.4 185.271 700.067 180.471 697.4 176.338C694.867 172.205 691.267 168.405 686.6 164.938C682.067 161.338 676.733 157.671 670.6 153.938C664.333 149.938 658.467 145.938 653 141.938C647.533 137.938 643.133 133.271 639.8 127.938C636.6 122.605 635 116.271 635 108.938C635 100.805 636.867 94.1381 640.6 88.9381C644.467 83.7381 649.4 79.8714 655.4 77.3381C661.533 74.8047 668.067 73.5381 675 73.5381ZM793.138 111.538C797.671 111.538 802.004 112.138 806.138 113.338C810.271 114.405 813.871 115.938 816.938 117.938C820.138 119.938 822.538 122.338 824.138 125.138C825.871 127.938 826.738 131.005 826.738 134.338C826.738 138.338 825.604 141.471 823.338 143.738C821.071 146.005 818.138 147.138 814.538 147.138C810.938 147.138 807.938 146.138 805.538 144.138C803.138 142.138 801.938 139.271 801.938 135.538C801.938 132.071 802.938 129.271 804.938 127.138C806.938 124.871 809.271 123.405 811.938 122.738C810.738 120.738 808.604 119.071 805.538 117.738C802.604 116.271 799.404 115.538 795.938 115.538C792.338 115.538 788.871 116.471 785.538 118.338C782.338 120.205 779.471 123.071 776.938 126.938C774.404 130.805 772.338 135.805 770.738 141.938C769.271 148.071 768.538 155.471 768.538 164.138C768.538 175.338 769.804 184.271 772.338 190.938C775.004 197.471 778.471 202.138 782.738 204.938C787.004 207.738 791.604 209.138 796.538 209.138C799.738 209.138 803.004 208.538 806.338 207.338C809.804 206.138 813.071 204.138 816.138 201.338C819.338 198.538 822.138 194.738 824.538 189.938L828.338 191.338C826.871 195.738 824.538 200.205 821.338 204.738C818.271 209.271 814.204 213.005 809.138 215.938C804.071 218.871 797.871 220.338 790.538 220.338C782.138 220.338 774.538 218.271 767.738 214.138C760.938 210.005 755.538 204.005 751.538 196.138C747.538 188.138 745.538 178.405 745.538 166.938C745.538 155.738 747.538 146.005 751.538 137.738C755.671 129.338 761.338 122.871 768.538 118.338C775.738 113.805 783.938 111.538 793.138 111.538ZM868.189 63.9381C872.322 63.9381 875.789 65.2714 878.589 67.9381C881.389 70.4714 882.789 73.6714 882.789 77.5381C882.789 81.4047 881.389 84.6714 878.589 87.3381C875.789 89.8714 872.322 91.1381 868.189 91.1381C864.056 91.1381 860.589 89.8714 857.789 87.3381C854.989 84.6714 853.589 81.4047 853.589 77.5381C853.589 73.6714 854.989 70.4714 857.789 67.9381C860.589 65.2714 864.056 63.9381 868.189 63.9381ZM880.189 112.138V198.938C880.189 204.538 881.256 208.338 883.389 210.338C885.656 212.338 889.389 213.338 894.589 213.338V217.538C892.322 217.405 888.789 217.271 883.989 217.138C879.322 216.871 874.522 216.738 869.589 216.738C864.922 216.738 860.122 216.871 855.189 217.138C850.256 217.271 846.589 217.405 844.189 217.538V213.338C849.389 213.338 853.056 212.338 855.189 210.338C857.456 208.338 858.589 204.538 858.589 198.938V136.138C858.589 130.138 857.589 125.738 855.589 122.938C853.589 120.005 849.789 118.538 844.189 118.538V114.338C848.456 114.738 852.589 114.938 856.589 114.938C861.122 114.938 865.322 114.738 869.189 114.338C873.189 113.805 876.856 113.071 880.189 112.138ZM1023.38 75.9381C1022.84 81.5381 1022.44 87.0047 1022.18 92.3381C1022.04 97.5381 1021.98 101.538 1021.98 104.338C1021.98 107.405 1022.04 110.338 1022.18 113.138C1022.31 115.938 1022.44 118.338 1022.58 120.338H1017.98C1016.64 110.338 1014.84 102.471 1012.58 96.7381C1010.44 91.0047 1007.31 86.8714 1003.18 84.3381C999.045 81.8047 993.111 80.5381 985.378 80.5381H976.778V194.538C976.778 199.871 977.245 203.871 978.178 206.538C979.245 209.205 981.245 211.005 984.178 211.938C987.245 212.738 991.645 213.271 997.378 213.538V217.538C993.645 217.271 988.845 217.138 982.978 217.138C977.111 217.005 971.111 216.938 964.978 216.938C958.578 216.938 952.511 217.005 946.778 217.138C941.178 217.138 936.645 217.271 933.178 217.538V213.538C938.911 213.271 943.245 212.738 946.178 211.938C949.111 211.005 951.111 209.205 952.178 206.538C953.245 203.871 953.778 199.871 953.778 194.538V80.5381H944.978C937.511 80.5381 931.645 81.8047 927.378 84.3381C923.111 86.8714 919.911 91.0047 917.778 96.7381C915.645 102.471 913.911 110.338 912.578 120.338H907.978C908.245 118.338 908.378 115.938 908.378 113.138C908.511 110.338 908.578 107.405 908.578 104.338C908.578 101.538 908.445 97.5381 908.178 92.3381C908.045 87.0047 907.711 81.5381 907.178 75.9381C912.911 76.0714 919.178 76.2047 925.978 76.3381C932.778 76.4714 939.645 76.5381 946.578 76.5381C953.511 76.5381 959.778 76.5381 965.378 76.5381C970.978 76.5381 977.178 76.5381 983.978 76.5381C990.778 76.5381 997.645 76.4714 1004.58 76.3381C1011.51 76.2047 1017.78 76.0714 1023.38 75.9381ZM1079.52 111.538C1091.26 111.538 1100.46 115.071 1107.12 122.138C1113.79 129.205 1117.12 140.405 1117.12 155.738H1048.12L1047.72 151.938H1095.92C1096.06 145.405 1095.52 139.405 1094.32 133.938C1093.12 128.338 1091.26 123.871 1088.72 120.538C1086.19 117.205 1082.86 115.538 1078.72 115.538C1072.99 115.538 1067.99 118.605 1063.72 124.738C1059.59 130.738 1057.06 140.405 1056.12 153.738L1056.72 154.738C1056.59 156.605 1056.46 158.671 1056.32 160.938C1056.19 163.071 1056.12 165.205 1056.12 167.338C1056.12 176.538 1057.52 184.271 1060.32 190.538C1063.12 196.805 1066.79 201.538 1071.32 204.738C1075.86 207.805 1080.46 209.338 1085.12 209.338C1088.72 209.338 1092.19 208.805 1095.52 207.738C1098.99 206.538 1102.26 204.605 1105.32 201.938C1108.39 199.138 1111.12 195.338 1113.52 190.538L1117.52 192.138C1115.92 196.671 1113.46 201.138 1110.12 205.538C1106.79 209.938 1102.52 213.538 1097.32 216.338C1092.12 219.005 1086.06 220.338 1079.12 220.338C1069.79 220.338 1061.66 218.271 1054.72 214.138C1047.79 209.871 1042.46 203.805 1038.72 195.938C1034.99 188.071 1033.12 178.738 1033.12 167.938C1033.12 156.071 1035.06 145.938 1038.92 137.538C1042.79 129.138 1048.19 122.738 1055.12 118.338C1062.19 113.805 1070.32 111.538 1079.52 111.538ZM1185.7 111.538C1190.23 111.538 1194.57 112.138 1198.7 113.338C1202.83 114.405 1206.43 115.938 1209.5 117.938C1212.7 119.938 1215.1 122.338 1216.7 125.138C1218.43 127.938 1219.3 131.005 1219.3 134.338C1219.3 138.338 1218.17 141.471 1215.9 143.738C1213.63 146.005 1210.7 147.138 1207.1 147.138C1203.5 147.138 1200.5 146.138 1198.1 144.138C1195.7 142.138 1194.5 139.271 1194.5 135.538C1194.5 132.071 1195.5 129.271 1197.5 127.138C1199.5 124.871 1201.83 123.405 1204.5 122.738C1203.3 120.738 1201.17 119.071 1198.1 117.738C1195.17 116.271 1191.97 115.538 1188.5 115.538C1184.9 115.538 1181.43 116.471 1178.1 118.338C1174.9 120.205 1172.03 123.071 1169.5 126.938C1166.97 130.805 1164.9 135.805 1163.3 141.938C1161.83 148.071 1161.1 155.471 1161.1 164.138C1161.1 175.338 1162.37 184.271 1164.9 190.938C1167.57 197.471 1171.03 202.138 1175.3 204.938C1179.57 207.738 1184.17 209.138 1189.1 209.138C1192.3 209.138 1195.57 208.538 1198.9 207.338C1202.37 206.138 1205.63 204.138 1208.7 201.338C1211.9 198.538 1214.7 194.738 1217.1 189.938L1220.9 191.338C1219.43 195.738 1217.1 200.205 1213.9 204.738C1210.83 209.271 1206.77 213.005 1201.7 215.938C1196.63 218.871 1190.43 220.338 1183.1 220.338C1174.7 220.338 1167.1 218.271 1160.3 214.138C1153.5 210.005 1148.1 204.005 1144.1 196.138C1140.1 188.138 1138.1 178.405 1138.1 166.938C1138.1 155.738 1140.1 146.005 1144.1 137.738C1148.23 129.338 1153.9 122.871 1161.1 118.338C1168.3 113.805 1176.5 111.538 1185.7 111.538ZM1271.35 60.9381V133.738C1274.68 125.471 1279.35 119.738 1285.35 116.538C1291.48 113.205 1297.95 111.538 1304.75 111.538C1310.08 111.538 1314.42 112.271 1317.75 113.738C1321.22 115.071 1324.08 116.938 1326.35 119.338C1328.75 121.871 1330.48 125.138 1331.55 129.138C1332.62 133.138 1333.15 138.538 1333.15 145.338V198.938C1333.15 204.538 1334.22 208.338 1336.35 210.338C1338.62 212.338 1342.35 213.338 1347.55 213.338V217.538C1345.15 217.405 1341.55 217.271 1336.75 217.138C1331.95 216.871 1327.28 216.738 1322.75 216.738C1318.08 216.738 1313.48 216.871 1308.95 217.138C1304.55 217.271 1301.28 217.405 1299.15 217.538V213.338C1303.68 213.338 1306.88 212.338 1308.75 210.338C1310.62 208.338 1311.55 204.538 1311.55 198.938V139.738C1311.55 135.871 1311.22 132.405 1310.55 129.338C1309.88 126.138 1308.42 123.605 1306.15 121.738C1304.02 119.738 1300.82 118.738 1296.55 118.738C1291.75 118.738 1287.42 120.138 1283.55 122.938C1279.82 125.605 1276.82 129.338 1274.55 134.138C1272.42 138.938 1271.35 144.405 1271.35 150.538V198.938C1271.35 204.538 1272.28 208.338 1274.15 210.338C1276.02 212.338 1279.22 213.338 1283.75 213.338V217.538C1281.48 217.405 1278.15 217.271 1273.75 217.138C1269.48 216.871 1265.08 216.738 1260.55 216.738C1255.88 216.738 1251.08 216.871 1246.15 217.138C1241.35 217.271 1237.75 217.405 1235.35 217.538V213.338C1240.55 213.338 1244.22 212.338 1246.35 210.338C1248.62 208.338 1249.75 204.538 1249.75 198.938V84.9381C1249.75 78.9381 1248.68 74.5381 1246.55 71.7381C1244.55 68.8047 1240.82 67.3381 1235.35 67.3381V63.1381C1239.62 63.5381 1243.75 63.7381 1247.75 63.7381C1252.15 63.7381 1256.35 63.5381 1260.35 63.1381C1264.35 62.6047 1268.02 61.8714 1271.35 60.9381ZM1469.53 75.9381V79.9381C1465.13 80.0714 1461.79 80.6047 1459.53 81.5381C1457.26 82.3381 1455.73 83.9381 1454.93 86.3381C1454.13 88.6047 1453.73 92.2047 1453.73 97.1381V196.338C1453.73 201.138 1454.13 204.738 1454.93 207.138C1455.73 209.538 1457.26 211.138 1459.53 211.938C1461.79 212.738 1465.13 213.271 1469.53 213.538V217.538C1466.33 217.271 1462.26 217.138 1457.33 217.138C1452.53 217.005 1447.59 216.938 1442.53 216.938C1436.93 216.938 1431.66 217.005 1426.73 217.138C1421.93 217.138 1417.99 217.271 1414.93 217.538V213.538C1419.46 213.271 1422.86 212.738 1425.13 211.938C1427.39 211.138 1428.86 209.538 1429.53 207.138C1430.33 204.738 1430.73 201.138 1430.73 196.338V97.1381C1430.73 92.2047 1430.33 88.6047 1429.53 86.3381C1428.86 83.9381 1427.33 82.3381 1424.93 81.5381C1422.66 80.6047 1419.33 80.0714 1414.93 79.9381V75.9381C1417.99 76.0714 1421.93 76.2047 1426.73 76.3381C1431.66 76.4714 1436.93 76.5381 1442.53 76.5381C1447.59 76.5381 1452.53 76.4714 1457.33 76.3381C1462.26 76.2047 1466.33 76.0714 1469.53 75.9381ZM1556.24 111.538C1561.58 111.538 1565.91 112.271 1569.24 113.738C1572.71 115.071 1575.58 116.938 1577.84 119.338C1580.24 121.871 1581.91 125.138 1582.84 129.138C1583.91 133.138 1584.44 138.538 1584.44 145.338V198.938C1584.44 204.538 1585.51 208.338 1587.64 210.338C1589.91 212.338 1593.64 213.338 1598.84 213.338V217.538C1596.58 217.405 1593.04 217.271 1588.24 217.138C1583.44 216.871 1578.71 216.738 1574.04 216.738C1569.51 216.738 1564.98 216.871 1560.44 217.138C1556.04 217.271 1552.71 217.405 1550.44 217.538V213.338C1554.98 213.338 1558.18 212.338 1560.04 210.338C1561.91 208.338 1562.84 204.538 1562.84 198.938V139.738C1562.84 135.871 1562.51 132.405 1561.84 129.338C1561.18 126.138 1559.78 123.605 1557.64 121.738C1555.51 119.738 1552.31 118.738 1548.04 118.738C1543.11 118.738 1538.71 120.138 1534.84 122.938C1531.11 125.738 1528.11 129.605 1525.84 134.538C1523.71 139.338 1522.64 144.738 1522.64 150.738V198.938C1522.64 204.538 1523.58 208.338 1525.44 210.338C1527.44 212.338 1530.64 213.338 1535.04 213.338V217.538C1532.91 217.405 1529.64 217.271 1525.24 217.138C1520.98 216.871 1516.51 216.738 1511.84 216.738C1507.31 216.738 1502.58 216.871 1497.64 217.138C1492.71 217.271 1489.04 217.405 1486.64 217.538V213.338C1491.84 213.338 1495.51 212.338 1497.64 210.338C1499.91 208.338 1501.04 204.538 1501.04 198.938V136.138C1501.04 130.138 1500.04 125.738 1498.04 122.938C1496.04 120.005 1492.24 118.538 1486.64 118.538V114.338C1490.91 114.738 1495.04 114.938 1499.04 114.938C1503.58 114.938 1507.78 114.738 1511.64 114.338C1515.64 113.805 1519.31 113.071 1522.64 112.138V133.938C1526.11 125.671 1530.84 119.871 1536.84 116.538C1542.98 113.205 1549.44 111.538 1556.24 111.538ZM1645.75 60.7381V198.938C1645.75 204.538 1646.68 208.338 1648.55 210.338C1650.55 212.338 1653.88 213.338 1658.55 213.338V217.538C1656.28 217.405 1652.88 217.271 1648.35 217.138C1643.95 216.871 1639.48 216.738 1634.95 216.738C1630.28 216.738 1625.48 216.871 1620.55 217.138C1615.75 217.271 1612.15 217.405 1609.75 217.538V213.338C1614.95 213.338 1618.62 212.338 1620.75 210.338C1623.02 208.338 1624.15 204.538 1624.15 198.938V84.7381C1624.15 78.7381 1623.08 74.3381 1620.95 71.5381C1618.95 68.6047 1615.22 67.1381 1609.75 67.1381V62.9381C1614.02 63.3381 1618.15 63.5381 1622.15 63.5381C1626.55 63.5381 1630.75 63.3381 1634.75 62.9381C1638.75 62.4047 1642.42 61.6714 1645.75 60.7381ZM1709.75 114.338V118.338C1706.15 118.871 1702.68 120.071 1699.35 121.938C1696.02 123.805 1692.75 126.405 1689.55 129.738L1665.55 154.938L1668.15 149.938L1704.35 202.938C1706.35 205.738 1708.28 208.071 1710.15 209.938C1712.02 211.671 1714.35 212.805 1717.15 213.338V217.538C1715.42 217.405 1712.82 217.271 1709.35 217.138C1706.02 216.871 1702.68 216.738 1699.35 216.738C1694.95 216.738 1690.48 216.871 1685.95 217.138C1681.42 217.271 1678.08 217.405 1675.95 217.538V213.338C1678.62 213.338 1680.42 212.671 1681.35 211.338C1682.42 210.005 1682.28 208.405 1680.95 206.538L1658.95 172.138C1656.68 168.938 1654.62 166.871 1652.75 165.938C1650.88 165.005 1648.22 164.471 1644.75 164.338V160.338C1648.62 159.938 1651.75 159.205 1654.15 158.138C1656.68 157.071 1659.02 155.338 1661.15 152.938L1676.15 137.738C1680.42 133.471 1682.55 129.938 1682.55 127.138C1682.55 124.205 1681.15 122.071 1678.35 120.738C1675.68 119.271 1672.08 118.471 1667.55 118.338V114.338C1671.15 114.471 1675.08 114.671 1679.35 114.938C1683.75 115.071 1687.42 115.138 1690.35 115.138C1692.75 115.138 1695.15 115.138 1697.55 115.138C1700.08 115.005 1702.42 114.871 1704.55 114.738C1706.68 114.605 1708.42 114.471 1709.75 114.338Z" fill="black"/>
</svg>
