<svg width="116" height="28" viewBox="0 0 116 28" fill="none" xmlns="http://www.w3.org/2000/svg">
<path d="M6.704 2.554C7.83733 2.554 8.69867 2.69 9.288 2.962C9.87733 3.21133 10.3987 3.49467 10.852 3.812C11.124 3.97067 11.3393 4.09533 11.498 4.186C11.6793 4.254 11.8493 4.288 12.008 4.288C12.2347 4.288 12.3933 4.16333 12.484 3.914C12.5973 3.66467 12.688 3.29067 12.756 2.792H13.538C13.5153 3.17733 13.4813 3.642 13.436 4.186C13.4133 4.70733 13.3907 5.41 13.368 6.294C13.368 7.15533 13.368 8.3 13.368 9.728H12.586C12.518 8.64 12.28 7.59733 11.872 6.6C11.464 5.60267 10.8633 4.78666 10.07 4.152C9.29933 3.51733 8.27933 3.2 7.01 3.2C5.80867 3.2 4.81133 3.56267 4.018 4.288C3.24733 5.01333 2.862 5.96533 2.862 7.144C2.862 8.164 3.12267 9.02533 3.644 9.728C4.16533 10.408 4.85667 11.0313 5.718 11.598C6.602 12.142 7.554 12.7313 8.574 13.366C9.75267 14.0913 10.7953 14.8167 11.702 15.542C12.6313 16.2447 13.3567 17.0267 13.878 17.888C14.422 18.7493 14.694 19.792 14.694 21.016C14.694 22.4667 14.3653 23.668 13.708 24.62C13.0507 25.572 12.178 26.286 11.09 26.762C10.002 27.238 8.80067 27.476 7.486 27.476C6.28467 27.476 5.33267 27.34 4.63 27.068C3.92733 26.796 3.32667 26.5127 2.828 26.218C2.32933 25.9007 1.944 25.742 1.672 25.742C1.44533 25.742 1.27533 25.8667 1.162 26.116C1.07133 26.3653 0.992 26.7393 0.924 27.238H0.142C0.187333 26.762 0.21 26.2067 0.21 25.572C0.232667 24.9147 0.244 24.0647 0.244 23.022C0.266667 21.9793 0.278 20.6647 0.278 19.078H1.06C1.15067 20.438 1.4 21.7073 1.808 22.886C2.23867 24.0647 2.88467 25.0167 3.746 25.742C4.63 26.4447 5.79733 26.796 7.248 26.796C7.996 26.796 8.69867 26.6487 9.356 26.354C10.036 26.0367 10.5913 25.5493 11.022 24.892C11.4527 24.212 11.668 23.3393 11.668 22.274C11.668 21.3447 11.4413 20.54 10.988 19.86C10.5573 19.1573 9.94533 18.5113 9.152 17.922C8.35867 17.31 7.42933 16.6867 6.364 16.052C5.29867 15.3947 4.30133 14.726 3.372 14.046C2.44267 13.366 1.69467 12.584 1.128 11.7C0.584 10.7933 0.312 9.70533 0.312 8.436C0.312 7.09867 0.606667 5.99933 1.196 5.138C1.808 4.254 2.60133 3.608 3.576 3.2C4.55067 2.76933 5.59333 2.554 6.704 2.554ZM25.8473 9.014C26.5727 9.014 27.2753 9.10467 27.9553 9.286C28.6353 9.46733 29.2473 9.73933 29.7913 10.102C30.3127 10.442 30.7093 10.8387 30.9813 11.292C31.2533 11.7227 31.3893 12.1987 31.3893 12.72C31.3893 13.332 31.2193 13.808 30.8793 14.148C30.5393 14.4653 30.1087 14.624 29.5873 14.624C29.0887 14.624 28.6467 14.4767 28.2613 14.182C27.8987 13.8873 27.7173 13.468 27.7173 12.924C27.7173 12.4027 27.8533 11.9833 28.1253 11.666C28.42 11.3487 28.76 11.1447 29.1453 11.054C28.9187 10.646 28.5107 10.306 27.9213 10.034C27.3547 9.762 26.7427 9.626 26.0853 9.626C25.5187 9.626 24.952 9.762 24.3853 10.034C23.8187 10.306 23.2973 10.7593 22.8213 11.394C22.3453 12.006 21.96 12.856 21.6653 13.944C21.3707 15.0093 21.2233 16.3467 21.2233 17.956C21.2233 19.9507 21.45 21.5373 21.9033 22.716C22.3567 23.8947 22.946 24.7447 23.6713 25.266C24.4193 25.7647 25.2353 26.014 26.1193 26.014C26.7087 26.014 27.3093 25.9007 27.9213 25.674C28.5333 25.4473 29.1113 25.0847 29.6553 24.586C30.1993 24.0647 30.664 23.3733 31.0493 22.512L31.6953 22.75C31.4687 23.4753 31.0947 24.212 30.5733 24.96C30.052 25.6853 29.372 26.286 28.5333 26.762C27.6947 27.238 26.6633 27.476 25.4393 27.476C24.034 27.476 22.7647 27.1133 21.6313 26.388C20.498 25.6627 19.5913 24.6313 18.9113 23.294C18.254 21.934 17.9253 20.3247 17.9253 18.466C17.9253 16.6073 18.254 14.9753 18.9113 13.57C19.5913 12.142 20.532 11.0313 21.7333 10.238C22.9347 9.422 24.306 9.014 25.8473 9.014ZM37.7585 0.989998C38.3478 0.989998 38.8578 1.20533 39.2885 1.636C39.7192 2.06666 39.9345 2.57666 39.9345 3.166C39.9345 3.75533 39.7192 4.26533 39.2885 4.696C38.8578 5.12667 38.3478 5.342 37.7585 5.342C37.1692 5.342 36.6592 5.12667 36.2285 4.696C35.7978 4.26533 35.5825 3.75533 35.5825 3.166C35.5825 2.57666 35.7978 2.06666 36.2285 1.636C36.6592 1.20533 37.1692 0.989998 37.7585 0.989998ZM39.5265 9.116V23.838C39.5265 24.79 39.7192 25.436 40.1045 25.776C40.5125 26.116 41.1812 26.286 42.1105 26.286V27C41.7252 26.9773 41.1358 26.9547 40.3425 26.932C39.5718 26.8867 38.7898 26.864 37.9965 26.864C37.2258 26.864 36.4438 26.8867 35.6505 26.932C34.8572 26.9547 34.2678 26.9773 33.8825 27V26.286C34.8118 26.286 35.4692 26.116 35.8545 25.776C36.2625 25.436 36.4665 24.79 36.4665 23.838V13.196C36.4665 12.176 36.2852 11.428 35.9225 10.952C35.5598 10.4533 34.8798 10.204 33.8825 10.204V9.49C34.6078 9.558 35.3105 9.592 35.9905 9.592C36.6478 9.592 37.2712 9.558 37.8605 9.49C38.4725 9.39933 39.0278 9.27467 39.5265 9.116ZM62.7862 2.928C62.6955 3.78933 62.6275 4.628 62.5822 5.444C62.5595 6.23733 62.5482 6.84933 62.5482 7.28C62.5482 7.824 62.5595 8.334 62.5822 8.81C62.6049 9.286 62.6275 9.70533 62.6502 10.068H61.8682C61.7095 8.48133 61.4942 7.23467 61.2222 6.328C60.9502 5.39867 60.4742 4.73 59.7942 4.322C59.1142 3.914 58.0602 3.71 56.6322 3.71H54.7962V23.056C54.7962 23.9627 54.8755 24.6427 55.0342 25.096C55.2155 25.5493 55.5555 25.8553 56.0542 26.014C56.5529 26.1727 57.2782 26.2747 58.2302 26.32V27C57.6409 26.9547 56.8929 26.932 55.9862 26.932C55.0795 26.9093 54.1615 26.898 53.2322 26.898C52.2122 26.898 51.2489 26.9093 50.3422 26.932C49.4582 26.932 48.7442 26.9547 48.2002 27V26.32C49.1522 26.2747 49.8775 26.1727 50.3762 26.014C50.8749 25.8553 51.2035 25.5493 51.3622 25.096C51.5435 24.6427 51.6342 23.9627 51.6342 23.056V3.71H49.7982C48.3929 3.71 47.3389 3.914 46.6362 4.322C45.9562 4.73 45.4802 5.39867 45.2082 6.328C44.9362 7.23467 44.7209 8.48133 44.5622 10.068H43.7802C43.8255 9.70533 43.8482 9.286 43.8482 8.81C43.8709 8.334 43.8822 7.824 43.8822 7.28C43.8822 6.84933 43.8595 6.23733 43.8142 5.444C43.7915 4.628 43.7349 3.78933 43.6442 2.928C44.5962 2.95067 45.6275 2.97333 46.7382 2.996C47.8715 3.01867 49.0049 3.03 50.1382 3.03C51.2715 3.03 52.3029 3.03 53.2322 3.03C54.1615 3.03 55.1815 3.03 56.2922 3.03C57.4255 3.03 58.5589 3.01867 59.6922 2.996C60.8255 2.97333 61.8569 2.95067 62.7862 2.928ZM71.5625 9.014C73.5571 9.014 75.1098 9.626 76.2205 10.85C77.3538 12.0513 77.9205 13.9327 77.9205 16.494H65.9185L65.8845 15.848H74.6565C74.7018 14.7373 74.6111 13.7173 74.3845 12.788C74.1578 11.836 73.7951 11.0767 73.2965 10.51C72.8205 9.94333 72.1971 9.66 71.4265 9.66C70.3838 9.66 69.4545 10.1813 68.6385 11.224C67.8451 12.2667 67.3691 13.9213 67.2105 16.188L67.3125 16.324C67.2671 16.664 67.2331 17.038 67.2105 17.446C67.1878 17.854 67.1765 18.262 67.1765 18.67C67.1765 20.2113 67.4258 21.5373 67.9245 22.648C68.4231 23.7587 69.0691 24.6087 69.8625 25.198C70.6785 25.7647 71.5171 26.048 72.3785 26.048C73.0585 26.048 73.7045 25.946 74.3165 25.742C74.9285 25.5153 75.4951 25.1527 76.0165 24.654C76.5378 24.1553 76.9911 23.4867 77.3765 22.648L78.0565 22.92C77.8071 23.668 77.3991 24.3933 76.8325 25.096C76.2658 25.7987 75.5518 26.3767 74.6905 26.83C73.8291 27.2607 72.8318 27.476 71.6985 27.476C70.0665 27.476 68.6611 27.102 67.4825 26.354C66.3265 25.606 65.4311 24.5747 64.7965 23.26C64.1845 21.9227 63.8785 20.3927 63.8785 18.67C63.8785 16.6753 64.1958 14.964 64.8305 13.536C65.4651 12.0853 66.3605 10.9747 67.5165 10.204C68.6725 9.41067 70.0211 9.014 71.5625 9.014ZM88.9997 9.014C89.725 9.014 90.4277 9.10467 91.1077 9.286C91.7877 9.46733 92.3997 9.73933 92.9437 10.102C93.465 10.442 93.8617 10.8387 94.1337 11.292C94.4057 11.7227 94.5417 12.1987 94.5417 12.72C94.5417 13.332 94.3717 13.808 94.0317 14.148C93.6917 14.4653 93.261 14.624 92.7397 14.624C92.241 14.624 91.799 14.4767 91.4137 14.182C91.051 13.8873 90.8697 13.468 90.8697 12.924C90.8697 12.4027 91.0057 11.9833 91.2777 11.666C91.5723 11.3487 91.9123 11.1447 92.2977 11.054C92.071 10.646 91.663 10.306 91.0737 10.034C90.507 9.762 89.895 9.626 89.2377 9.626C88.671 9.626 88.1043 9.762 87.5377 10.034C86.971 10.306 86.4497 10.7593 85.9737 11.394C85.4977 12.006 85.1123 12.856 84.8177 13.944C84.523 15.0093 84.3757 16.3467 84.3757 17.956C84.3757 19.9507 84.6023 21.5373 85.0557 22.716C85.509 23.8947 86.0983 24.7447 86.8237 25.266C87.5717 25.7647 88.3877 26.014 89.2717 26.014C89.861 26.014 90.4617 25.9007 91.0737 25.674C91.6857 25.4473 92.2637 25.0847 92.8077 24.586C93.3517 24.0647 93.8163 23.3733 94.2017 22.512L94.8477 22.75C94.621 23.4753 94.247 24.212 93.7257 24.96C93.2043 25.6853 92.5243 26.286 91.6857 26.762C90.847 27.238 89.8157 27.476 88.5917 27.476C87.1863 27.476 85.917 27.1133 84.7837 26.388C83.6503 25.6627 82.7437 24.6313 82.0637 23.294C81.4063 21.934 81.0777 20.3247 81.0777 18.466C81.0777 16.6073 81.4063 14.9753 82.0637 13.57C82.7437 12.142 83.6843 11.0313 84.8857 10.238C86.087 9.422 87.4583 9.014 88.9997 9.014ZM102.373 0.377998V13.094C102.962 11.5527 103.778 10.4873 104.821 9.898C105.886 9.30867 106.997 9.014 108.153 9.014C109.014 9.014 109.728 9.12733 110.295 9.354C110.884 9.58067 111.371 9.898 111.757 10.306C112.187 10.7593 112.493 11.326 112.675 12.006C112.856 12.686 112.947 13.604 112.947 14.76V23.838C112.947 24.79 113.139 25.436 113.525 25.776C113.933 26.116 114.601 26.286 115.531 26.286V27C115.145 26.9773 114.556 26.9547 113.763 26.932C112.969 26.8867 112.199 26.864 111.451 26.864C110.703 26.864 109.966 26.8867 109.241 26.932C108.538 26.9547 108.005 26.9773 107.643 27V26.286C108.459 26.286 109.037 26.116 109.377 25.776C109.717 25.436 109.887 24.79 109.887 23.838V14.012C109.887 13.3093 109.83 12.6633 109.717 12.074C109.603 11.4847 109.343 11.0087 108.935 10.646C108.549 10.2833 107.949 10.102 107.133 10.102C106.203 10.102 105.376 10.3627 104.651 10.884C103.948 11.4053 103.393 12.1307 102.985 13.06C102.577 13.9893 102.373 15.0547 102.373 16.256V23.838C102.373 24.79 102.543 25.436 102.883 25.776C103.223 26.116 103.801 26.286 104.617 26.286V27C104.254 26.9773 103.71 26.9547 102.985 26.932C102.282 26.8867 101.557 26.864 100.809 26.864C100.061 26.864 99.2902 26.8867 98.4968 26.932C97.7035 26.9547 97.1142 26.9773 96.7288 27V26.286C97.6582 26.286 98.3155 26.116 98.7008 25.776C99.1088 25.436 99.3128 24.79 99.3128 23.838V4.458C99.3128 3.438 99.1315 2.69 98.7688 2.214C98.4062 1.71533 97.7262 1.466 96.7288 1.466V0.751999C97.4542 0.819999 98.1568 0.853998 98.8368 0.853998C99.4942 0.853998 100.117 0.819999 100.707 0.751999C101.319 0.661333 101.874 0.536666 102.373 0.377998Z" fill="black"/>
</svg>
